<svg width="24" height="24" viewBox="0 0 24 24" fill="none" xmlns="http://www.w3.org/2000/svg">
<path fill-rule="evenodd" clip-rule="evenodd" d="M12.625 5.22C11.042 3.953 9.183 3.992 7.856 4.271C7.048 4.441 6.226 4.721 5.504 5.131C5.3508 5.21851 5.22348 5.345 5.13496 5.49762C5.04644 5.65024 4.99988 5.82357 5 6V20C5 20.2652 5.10536 20.5196 5.29289 20.7071C5.48043 20.8946 5.73478 21 6 21C6.26522 21 6.51957 20.8946 6.70711 20.7071C6.89464 20.5196 7 20.2652 7 20V14.63C8.376 14.05 10.124 13.78 11.375 14.78C12.958 16.047 14.817 16.008 16.143 15.729C16.8894 15.5699 17.6125 15.3165 18.295 14.975C18.687 14.777 19 14.473 19 14V6C19 5.82494 18.9541 5.65295 18.8668 5.50121C18.7795 5.34947 18.6539 5.22331 18.5025 5.13534C18.3512 5.04737 18.1794 5.00066 18.0043 4.9999C17.8293 4.99914 17.6571 5.04435 17.505 5.131C16.066 5.917 14.001 6.321 12.625 5.219V5.22ZM7 6.63V12.499C8.881 11.897 11.021 11.936 12.625 13.219C13.542 13.953 14.683 13.992 15.732 13.772C16.1664 13.6781 16.5909 13.5436 17 13.37V7.5C16.7184 7.59054 16.4324 7.66664 16.143 7.728C14.817 8.007 12.958 8.046 11.375 6.78C10.124 5.78 8.376 6.049 7 6.629V6.63Z" fill="#35A041"/>
</svg>
