<svg width="18" height="18" viewBox="0 0 18 18" fill="none" xmlns="http://www.w3.org/2000/svg">
<path fill-rule="evenodd" clip-rule="evenodd" d="M6.15525 3.885C6.06825 4.0155 6 4.236 6 4.5V11.25C6 11.4489 5.92098 11.6397 5.78033 11.7803C5.63968 11.921 5.44891 12 5.25 12C5.05109 12 4.86032 11.921 4.71967 11.7803C4.57902 11.6397 4.5 11.4489 4.5 11.25V9C4.5 8.736 4.4325 8.5155 4.34475 8.385C4.27275 8.27625 4.20975 8.25 4.125 8.25C4.041 8.25 3.97725 8.27625 3.90525 8.385C3.81825 8.5155 3.75 8.736 3.75 9V12C3.75 12.7747 4.275 13.605 5.29125 14.2822C6.29025 14.949 7.6455 15.375 9 15.375C11.751 15.375 13.5 13.6882 13.5 12V9C13.5 8.736 13.4325 8.5155 13.3447 8.385C13.2727 8.27625 13.2098 8.25 13.125 8.25C13.041 8.25 12.9773 8.27625 12.9053 8.385C12.8183 8.5155 12.75 8.736 12.75 9C12.75 9.19891 12.671 9.38968 12.5303 9.53033C12.3897 9.67098 12.1989 9.75 12 9.75C11.8011 9.75 11.6103 9.67098 11.4697 9.53033C11.329 9.38968 11.25 9.19891 11.25 9V8.25C11.25 7.986 11.1825 7.7655 11.0948 7.635C11.0227 7.52625 10.9598 7.5 10.875 7.5C10.791 7.5 10.7273 7.52625 10.6552 7.635C10.5682 7.7655 10.5 7.986 10.5 8.25V8.625C10.5 8.82391 10.421 9.01468 10.2803 9.15533C10.1397 9.29598 9.94891 9.375 9.75 9.375C9.55109 9.375 9.36032 9.29598 9.21967 9.15533C9.07902 9.01468 9 8.82391 9 8.625V7.875C9 7.611 8.9325 7.3905 8.84475 7.26C8.77275 7.15125 8.70975 7.125 8.625 7.125C8.541 7.125 8.47725 7.15125 8.40525 7.26C8.31825 7.3905 8.25 7.611 8.25 7.875V8.25C8.25 8.44891 8.17098 8.63968 8.03033 8.78033C7.88968 8.92098 7.69891 9 7.5 9C7.30109 9 7.11032 8.92098 6.96967 8.78033C6.82902 8.63968 6.75 8.44891 6.75 8.25V4.5C6.75 4.236 6.6825 4.0155 6.59475 3.885C6.52275 3.77625 6.45975 3.75 6.375 3.75C6.291 3.75 6.22725 3.77625 6.15525 3.885ZM8.25 5.664V4.5C8.25 4.014 8.13 3.4845 7.84275 3.0525C7.53975 2.59875 7.04025 2.25 6.375 2.25C5.709 2.25 5.21025 2.59875 4.90725 3.0525C4.61925 3.4845 4.5 4.014 4.5 4.5V6.789C4.37673 6.76281 4.25103 6.74974 4.125 6.75C3.459 6.75 2.96025 7.09875 2.65725 7.5525C2.36925 7.9845 2.25 8.514 2.25 9V12C2.25 13.4753 3.225 14.7075 4.45875 15.5303C5.709 16.3635 7.3545 16.875 9 16.875C12.249 16.875 15 14.8118 15 12V9C15 8.514 14.88 7.9845 14.5928 7.5525C14.2898 7.09875 13.7902 6.75 13.125 6.75C12.8768 6.74837 12.6311 6.80057 12.405 6.903C12.3852 6.86894 12.3644 6.83543 12.3428 6.8025C12.0398 6.34875 11.5402 6 10.875 6C10.5232 6 10.218 6.0975 9.9645 6.255C9.80262 6.05643 9.59822 5.89673 9.36638 5.7877C9.13455 5.67866 8.88119 5.62306 8.625 5.625C8.49375 5.625 8.3685 5.6385 8.25 5.664Z" fill="#0645AD"/>
</svg>
