<svg width="24" height="24" viewBox="0 0 24 24" fill="none" xmlns="http://www.w3.org/2000/svg">
<path fill-rule="evenodd" clip-rule="evenodd" d="M9.20651 14.793C11.5245 17.111 13.6775 18.403 15.2795 19.121C16.6785 19.748 18.3295 19.256 19.6165 17.969L19.9105 17.674L16.3745 15.424C15.7025 16.404 14.4315 16.979 13.1625 16.444C12.2015 16.038 10.9295 15.344 9.79252 14.207C8.65552 13.07 7.96252 11.798 7.55652 10.837C7.02052 9.568 7.59452 8.297 8.57552 7.625L6.32552 4.089L6.03052 4.383C4.74352 5.67 4.25252 7.321 4.87852 8.72C5.59652 10.322 6.88851 12.475 9.20651 14.793ZM14.4625 20.946C12.6475 20.133 10.2905 18.705 7.79252 16.207C5.29452 13.71 3.86652 11.352 3.05252 9.537C1.97751 7.137 2.95952 4.627 4.61652 2.969L4.91051 2.674C5.12226 2.46212 5.37889 2.30051 5.66147 2.2011C5.94404 2.10169 6.24533 2.06702 6.5431 2.09966C6.84087 2.1323 7.1275 2.2314 7.38183 2.38966C7.63616 2.54792 7.85169 2.76128 8.01251 3.014L10.8425 7.464C10.9175 7.58204 10.9668 7.71449 10.9874 7.8528C11.008 7.9911 10.9994 8.13218 10.9621 8.26694C10.9247 8.4017 10.8596 8.52713 10.7708 8.63514C10.682 8.74315 10.5715 8.83134 10.4465 8.894L9.81352 9.211C9.38152 9.427 9.29352 9.808 9.39852 10.059C9.73752 10.862 10.3045 11.89 11.2065 12.793C12.1095 13.695 13.1375 14.262 13.9405 14.601C14.1915 14.707 14.5725 14.618 14.7885 14.186L15.1055 13.553C15.1681 13.4279 15.2562 13.3174 15.3642 13.2285C15.4722 13.1395 15.5976 13.0743 15.7323 13.0369C15.8671 12.9995 16.0082 12.9907 16.1466 13.0112C16.2849 13.0318 16.4174 13.0811 16.5355 13.156L20.9855 15.987C21.2382 16.1478 21.4516 16.3634 21.6099 16.6177C21.7681 16.872 21.8672 17.1587 21.8999 17.4564C21.9325 17.7542 21.8978 18.0555 21.7984 18.3381C21.699 18.6206 21.5374 18.8773 21.3255 19.089L21.0305 19.383C19.3735 21.041 16.8635 22.022 14.4625 20.946Z" fill="#35A041"/>
</svg>
