<svg width="24" height="24" viewBox="0 0 24 24" fill="none" xmlns="http://www.w3.org/2000/svg">
<path fill-rule="evenodd" clip-rule="evenodd" d="M3.72436 8.45163L7.29036 7.1937C6.5541 8.18479 5.92177 9.24901 5.40336 10.3695L3.72436 8.45163ZM1.24736 8.65863L4.55036 12.4324L4.07236 13.6284C3.99961 13.8099 3.98168 14.0087 4.02078 14.2003C4.05989 14.3919 4.15431 14.5678 4.29236 14.7063L4.60736 15.0203C2.90336 16.9402 1.96336 18.9491 1.05136 21.683C0.992602 21.8592 0.984074 22.0482 1.02673 22.229C1.0694 22.4098 1.16156 22.5751 1.29289 22.7064C1.42423 22.8377 1.58955 22.9299 1.77032 22.9726C1.95109 23.0152 2.14017 23.0067 2.31636 22.9479C5.05036 22.036 7.05936 21.096 8.97936 19.3921L9.29336 19.7061C9.43174 19.8443 9.60762 19.9389 9.79923 19.9782C9.99084 20.0175 10.1898 19.9997 10.3714 19.9271L11.5674 19.4491L15.3414 22.7519C15.4643 22.8596 15.6118 22.9355 15.7708 22.973C15.9299 23.0104 16.0957 23.0084 16.2538 22.9669C16.4119 22.9255 16.5574 22.8459 16.6776 22.7352C16.7978 22.6246 16.8891 22.4861 16.9434 22.332L19.9294 13.8724C21.9127 11.5256 23.0007 8.5523 23.0004 5.47978V1.99995C23.0004 1.73475 22.895 1.48041 22.7075 1.29288C22.5199 1.10535 22.2656 1 22.0004 1H18.5204C15.4481 0.99957 12.4751 2.08715 10.1284 4.06985L1.66836 7.0567C1.5144 7.11107 1.3761 7.2023 1.26553 7.32243C1.15496 7.44256 1.07549 7.58794 1.03406 7.74586C0.992625 7.90378 0.990495 8.06945 1.02785 8.22838C1.06521 8.38732 1.14092 8.53469 1.24836 8.65762L1.24736 8.65863ZM3.68536 20.3141C4.31336 18.7981 5.01736 17.5922 6.02436 16.4372L7.56236 17.9752C6.40736 18.9821 5.20136 19.6861 3.68536 20.3141ZM10.2414 17.8262L9.70736 17.2922L6.70736 14.2923L6.17336 13.7584L6.88336 11.9835C7.53493 10.3552 8.4498 8.84512 9.59136 7.51368L10.1674 6.84071C11.2002 5.63589 12.4815 4.66881 13.9233 4.00583C15.3652 3.34286 16.9334 2.9997 18.5204 2.9999H21.0004V5.47978C21.0006 7.06667 20.6574 8.63482 19.9944 10.0766C19.3314 11.5184 18.3642 12.7996 17.1594 13.8324L16.4864 14.4083C15.1548 15.5498 13.6447 16.4646 12.0164 17.1162L10.2414 17.8262ZM15.5484 20.2751L13.6304 18.5971C14.751 18.0788 15.8152 17.4465 16.8064 16.7102L15.5484 20.2751ZM15.0004 7.99966C15.0004 7.73445 15.1057 7.48011 15.2933 7.29258C15.4808 7.10506 15.7351 6.99971 16.0004 6.99971C16.2656 6.99971 16.5199 7.10506 16.7075 7.29258C16.895 7.48011 17.0004 7.73445 17.0004 7.99966C17.0004 8.26486 16.895 8.5192 16.7075 8.70673C16.5199 8.89426 16.2656 8.99961 16.0004 8.99961C15.7351 8.99961 15.4808 8.89426 15.2933 8.70673C15.1057 8.5192 15.0004 8.26486 15.0004 7.99966ZM16.0004 4.9998C15.2047 4.9998 14.4416 5.31586 13.879 5.87844C13.3164 6.44102 13.0004 7.20405 13.0004 7.99966C13.0004 8.79527 13.3164 9.55829 13.879 10.1209C14.4416 10.6835 15.2047 10.9995 16.0004 10.9995C16.796 10.9995 17.5591 10.6835 18.1217 10.1209C18.6843 9.55829 19.0004 8.79527 19.0004 7.99966C19.0004 7.20405 18.6843 6.44102 18.1217 5.87844C17.5591 5.31586 16.796 4.9998 16.0004 4.9998Z" fill="#35A041"/>
</svg>
