<svg width="38" height="38" viewBox="0 0 38 38" fill="none" xmlns="http://www.w3.org/2000/svg">
<path fill-rule="evenodd" clip-rule="evenodd" d="M19.0001 4.7501C17.7404 4.7501 16.5322 5.25055 15.6414 6.14134C14.7506 7.03214 14.2501 8.24032 14.2501 9.5001H23.7501C23.7501 8.24032 23.2497 7.03214 22.3589 6.14134C21.4681 5.25055 20.2599 4.7501 19.0001 4.7501ZM26.9168 9.5001C26.9168 7.40047 26.0827 5.38684 24.5981 3.90217C23.1134 2.41751 21.0998 1.58344 19.0001 1.58344C16.9005 1.58344 14.8869 2.41751 13.4022 3.90217C11.9175 5.38684 11.0835 7.40047 11.0835 9.5001H8.08305C7.64064 9.50012 7.20313 9.59284 6.79875 9.77228C6.39436 9.95173 6.03206 10.2139 5.7352 10.542C5.43834 10.87 5.21352 11.2566 5.07521 11.6768C4.93691 12.0971 4.8882 12.5416 4.93222 12.9819L6.31764 26.8392L5.16022 32.6294C5.06843 33.0887 5.07964 33.5626 5.19305 34.0169C5.30646 34.4713 5.51924 34.8949 5.81606 35.2571C6.11288 35.6194 6.48636 35.9113 6.90958 36.1118C7.3328 36.3123 7.79523 36.4165 8.26355 36.4168H29.7351C30.2036 36.4167 30.6662 36.3127 31.0896 36.1123C31.513 35.9119 31.8867 35.62 32.1837 35.2577C32.4807 34.8955 32.6936 34.4718 32.8071 34.0173C32.9206 33.5628 32.9319 33.0888 32.84 32.6294L31.6826 26.8392L33.0681 12.9819C33.1121 12.5416 33.0634 12.0971 32.9251 11.6768C32.7868 11.2566 32.5619 10.87 32.2651 10.542C31.9682 10.2139 31.6059 9.95173 31.2015 9.77228C30.7971 9.59284 30.3596 9.50012 29.9172 9.5001H26.9168ZM12.6668 12.6668H8.08305L9.49222 26.7584L9.51597 26.9959L9.46847 27.2271L8.26514 33.2501H29.7351L28.5318 27.2271L28.4843 26.9943L28.5081 26.76L29.9172 12.6668L31.4926 12.8251L29.9172 12.6668H12.6668ZM11.0835 26.9168C11.0835 26.4968 11.2503 26.0941 11.5472 25.7972C11.8441 25.5002 12.2469 25.3334 12.6668 25.3334H25.3335C25.7534 25.3334 26.1561 25.5002 26.4531 25.7972C26.75 26.0941 26.9168 26.4968 26.9168 26.9168C26.9168 27.3367 26.75 27.7394 26.4531 28.0364C26.1561 28.3333 25.7534 28.5001 25.3335 28.5001H12.6668C12.2469 28.5001 11.8441 28.3333 11.5472 28.0364C11.2503 27.7394 11.0835 27.3367 11.0835 26.9168Z" fill="white"/>
</svg>
