<svg width="24" height="24" viewBox="0 0 24 24" fill="none" xmlns="http://www.w3.org/2000/svg">
<path fill-rule="evenodd" clip-rule="evenodd" d="M14 5C13.7348 5 13.4805 5.10535 13.2929 5.29289C13.1054 5.48043 13 5.73478 13 6C13 6.26521 13.1054 6.51957 13.2929 6.7071C13.4805 6.89464 13.7348 7 14 7C14.2653 7 14.5196 6.89464 14.7072 6.7071C14.8947 6.51957 15 6.26521 15 6C15 5.73478 14.8947 5.48043 14.7072 5.29289C14.5196 5.10535 14.2653 5 14 5ZM11 6C11 5.3496 11.2114 4.71682 11.6023 4.19699C11.9931 3.67715 12.5424 3.29842 13.1672 3.11786C13.792 2.9373 14.4586 2.96469 15.0665 3.1959C15.6744 3.42711 16.1907 3.84961 16.5376 4.39976C16.8846 4.94991 17.0433 5.59789 16.9899 6.24609C16.9366 6.89429 16.674 7.5076 16.2418 7.9936C15.8095 8.4796 15.2311 8.81197 14.5936 8.94064C13.956 9.06932 13.2939 8.98731 12.707 8.707L10.707 10.707C10.895 11.098 11 11.537 11 12C11 12.463 10.895 12.902 10.707 13.293L12.707 15.293C13.3456 14.988 14.0715 14.9185 14.7563 15.0969C15.4412 15.2753 16.0409 15.6901 16.4495 16.2679C16.8581 16.8457 17.0493 17.5494 16.9893 18.2546C16.9292 18.9597 16.6218 19.6209 16.1214 20.1214C15.621 20.6218 14.9598 20.9292 14.2546 20.9892C13.5495 21.0493 12.8458 20.8581 12.268 20.4495C11.6901 20.0409 11.2754 19.4411 11.097 18.7563C10.9186 18.0715 10.988 17.3456 11.293 16.707L9.29305 14.707C8.83575 14.9252 8.33063 15.0241 7.82481 14.9943C7.31899 14.9646 6.82894 14.8072 6.40038 14.5368C5.97183 14.2665 5.61873 13.892 5.37402 13.4483C5.12932 13.0046 5.00098 12.5062 5.00098 11.9995C5.00098 11.4928 5.12932 10.9944 5.37402 10.5507C5.61873 10.107 5.97183 9.73249 6.40038 9.46215C6.82894 9.19181 7.31899 9.03443 7.82481 9.00467C8.33063 8.97492 8.83575 9.07377 9.29305 9.292L11.293 7.293C11.0999 6.88935 10.9997 6.44749 11 6ZM8.00005 11C7.73483 11 7.48048 11.1054 7.29294 11.2929C7.1054 11.4804 7.00005 11.7348 7.00005 12C7.00005 12.2652 7.1054 12.5196 7.29294 12.7071C7.48048 12.8946 7.73483 13 8.00005 13C8.26526 13 8.51962 12.8946 8.70715 12.7071C8.89469 12.5196 9.00005 12.2652 9.00005 12C9.00005 11.7348 8.89469 11.4804 8.70715 11.2929C8.51962 11.1054 8.26526 11 8.00005 11ZM14 17C13.8687 16.9997 13.7386 17.0254 13.6172 17.0757C13.4959 17.126 13.3857 17.1999 13.293 17.293C13.1295 17.4566 13.0277 17.6719 13.0051 17.9021C12.9824 18.1324 13.0403 18.3634 13.1689 18.5557C13.2975 18.748 13.4887 18.8899 13.7101 18.957C13.9316 19.0241 14.1694 19.0124 14.3831 18.9238C14.5968 18.8352 14.7732 18.6753 14.8823 18.4712C14.9913 18.2672 15.0262 18.0316 14.981 17.8047C14.9358 17.5778 14.8134 17.3736 14.6345 17.2269C14.4556 17.0801 14.2314 16.9999 14 17Z" fill="#35A041"/>
</svg>
